<svg width="285" height="291" viewBox="0 0 285 291" fill="none" xmlns="http://www.w3.org/2000/svg">
<path d="M242.526 41.8709L58.2939 29.8627C57.1308 29.7869 55.9709 30.0525 54.9566 30.6268C51.831 32.3966 50.9582 36.502 53.0934 39.3903L215.428 258.98C217.201 261.379 220.161 262.592 223.107 262.127L226.381 261.611C230.645 260.938 233.599 256.999 233.131 252.707C225.978 187.182 233.023 130.74 249.841 51.5619C250.857 46.7791 247.405 42.1889 242.526 41.8709Z" fill="#C7EBB3" stroke="#78D1B3" stroke-width="4"/>
<path d="M28.9528 244.663C16.0037 167.99 18.6712 122.473 46.7208 38.4073C47.871 34.9603 51.2261 32.7137 54.8509 32.9699L230.997 45.4195C236.094 45.7797 239.543 50.778 238.151 55.6937C217.154 129.845 214.253 177.029 218.899 255.985C219.184 260.837 215.135 264.854 210.288 264.486L36.2099 251.276C32.5634 251 29.5618 248.269 28.9528 244.663Z" fill="#F6F9F7" stroke="#CED8DD" stroke-width="4"/>
<path d="M55.7098 43.034C48.1329 28.5375 68.0705 16.7838 74.0043 32.1032" stroke="#A5B0AD" stroke-width="4"/>
<path d="M82.8416 44.399C75.2647 29.9025 95.2023 18.1488 101.136 33.4682" stroke="#A5B0AD" stroke-width="4"/>
<path d="M109.615 47.2625C102.038 32.766 121.976 21.0123 127.909 36.3317" stroke="#A5B0AD" stroke-width="4"/>
<path d="M139.196 48.6704C131.619 34.174 151.556 22.4203 157.49 37.7397" stroke="#A5B0AD" stroke-width="4"/>
<path d="M168.776 50.0786C161.199 35.5822 181.137 23.8285 187.07 39.1479" stroke="#A5B0AD" stroke-width="4"/>
<path d="M198.386 53.4544C190.809 38.9579 210.747 27.2042 216.681 42.5236" stroke="#A5B0AD" stroke-width="4"/>
<path d="M225.386 55.4544C217.809 40.9579 237.747 29.2042 243.681 44.5236" stroke="#A5B0AD" stroke-width="4"/>
<path d="M100.228 126.644C99.6251 134.165 111.363 139.374 117.211 125.928C123.059 112.482 114.483 112.571 118.387 126.112C122.292 139.653 134.783 133.647 134.997 127.779" stroke="#615A59" stroke-width="4"/>
<rect x="110.474" y="111.724" width="15.0063" height="14.7587" transform="rotate(2.90036 110.474 111.724)" fill="#F6F9F7"/>
<path d="M53.5695 59.3876L217.531 70.9562M210.44 97.671L53.4766 86.6505M45.3856 113.362L204.347 124.913M199.242 155.829L39.275 145.847M39.1803 173.634L199.145 184.141M199.037 216.122L39.0642 207.713M44.9821 231.85L198.949 241.812" stroke="#EFE4EE" stroke-width="4"/>
<circle cx="78.3283" cy="122.969" r="12.5" transform="rotate(8.90062 78.3283 122.969)" fill="#615A59"/>
<circle cx="160.119" cy="129.4" r="12.5" transform="rotate(8.90062 160.119 129.4)" fill="#615A59"/>
<ellipse cx="72.1976" cy="139.531" rx="14.0244" ry="8" transform="rotate(8.90062 72.1976 139.531)" fill="#FFA3A3"/>
<ellipse cx="153.988" cy="145.962" rx="14.0244" ry="8" transform="rotate(8.90062 153.988 145.962)" fill="#FFA3A3"/>
<path d="M132 270.134L142.776 232.652L170.017 183.777L206.075 117.822C210.026 102.134 215.571 100.212 224.445 104.219C233.359 109.868 230.035 115.05 220.769 126.053L184.701 192.161L156.976 242.978L132 270.134Z" fill="#F6F9F7"/>
<path d="M206.075 117.822L220.769 126.053M206.075 117.822L170.017 183.777M206.075 117.822L198.701 114.141L178.445 154.464C177.054 156.628 179.508 157.371 179.508 157.371M206.075 117.822C210.026 102.134 215.571 100.212 224.445 104.219C233.359 109.868 230.035 115.05 220.769 126.053M142.776 232.652L132 270.134L156.976 242.978M142.776 232.652L170.017 183.777M142.776 232.652L156.976 242.978M156.976 242.978L184.701 192.161M220.769 126.053L184.701 192.161M170.017 183.777L184.701 192.161" stroke="#A5B0AD" stroke-width="2"/>
<path d="M206.093 117.759L220.787 125.99C230.053 114.988 233.377 109.806 224.463 104.156C215.589 100.15 210.044 102.072 206.093 117.759Z" fill="#EBC7E5"/>
<path d="M142.794 232.59L170.035 183.714L184.719 192.098L156.994 242.916L142.794 232.59Z" fill="#EBC7E5"/>
<path d="M206.093 117.759L220.787 125.99C230.053 114.988 233.377 109.806 224.463 104.156C215.589 100.15 210.044 102.072 206.093 117.759Z" stroke="#A5B0AD" stroke-width="2"/>
<path d="M142.794 232.59L170.035 183.714L184.719 192.098L156.994 242.916L142.794 232.59Z" stroke="#A5B0AD" stroke-width="2"/>
</svg>
